<?xml version="1.0" ?><svg enable-background="new 0 0 512 512" id="Layer_1" version="1.1" viewBox="0 0 512 512" xml:space="preserve" xmlns="http://www.w3.org/2000/svg" xmlns:xlink="http://www.w3.org/1999/xlink"><g><g><linearGradient gradientUnits="userSpaceOnUse" id="SVGID_1_" x1="-0.0000027" x2="512" y1="256" y2="256"><stop offset="0" style="stop-color:#E24263"/><stop offset="1" style="stop-color:#DD1E47"/></linearGradient><circle cx="256" cy="256" fill="url(#SVGID_1_)" r="256"/><linearGradient gradientUnits="userSpaceOnUse" id="SVGID_2_" x1="42.6666641" x2="469.3333435" y1="256.0005188" y2="256.0005188"><stop offset="0" style="stop-color:#DD1E47"/><stop offset="1" style="stop-color:#E24263"/></linearGradient><path d="M256,469.3338623c-117.6309967,0-213.3333435-95.7018738-213.3333435-213.3333435    S138.3690033,42.6671982,256,42.6671982c117.6362,0,213.3333435,95.7018661,213.3333435,213.333313    S373.6362,469.3338623,256,469.3338623z" fill="url(#SVGID_2_)"/></g><g><path d="M343.1242065,374.2037354v-40.8149414h11.4309387v-9.7957153h-0.0010681V144h-38.2010803v92.9834595    l-34.286377-21.7157288l-34.2858734,21.7157288V144h-49.032547v189.3887939h134.5802612v40.8149414h-134.58078    c-11.2501373,0-20.4048004-9.1546631-20.4048004-20.4053345c0-7.6848145,4.319458-14.3109436,10.6095886-17.7919922V144.4111938    c-11.5706635,1.9525452-20.4058685,11.9520111-20.4058685,24.0783997v185.3066711l0.0005341-0.0021362l-0.0005341,0.0032043    C168.5466003,370.4538574,182.0927429,384,198.7476807,384h160.7055969v-9.7962646H343.1242065z" opacity="0.3"/><polygon opacity="0.3" points="306.5567322,219.1802673 306.5567322,144 257.5769958,144 257.5769958,219.1802673     282.0666199,203.6735992   "/></g><g><path d="M335.1242065,366.2037354v-40.8149414h11.4309387v-9.7957153h-0.0010681V136h-38.2010803v92.9834595    l-34.286377-21.7157288l-34.2858734,21.7157288V136h-49.032547v189.3887939h134.5802612v40.8149414h-134.58078    c-11.2501373,0-20.4048004-9.1546631-20.4048004-20.4053345c0-7.6848145,4.319458-14.3109436,10.6095886-17.7919922V136.4111938    c-11.5706635,1.9525452-20.4058685,11.9520111-20.4058685,24.0783997v185.3066711l0.0005341-0.0021362l-0.0005341,0.0032043    C160.5466003,362.4538574,174.0927429,376,190.7476807,376h160.7055969v-9.7962646H335.1242065z" fill="#FFFFFF"/><polygon fill="#FFFFFF" points="298.5567322,211.1802673 298.5567322,136 249.5770111,136 249.5770111,211.1802673     274.0666199,195.6735992   "/></g></g></svg>