<?xml version="1.0" ?><svg data-name="Layer 1" id="Layer_1" viewBox="0 0 272 272" xmlns="http://www.w3.org/2000/svg"><defs><style>.cls-1{fill:#424242;}</style></defs><title/><path class="cls-1" d="M104.08,190.26,79.44,243.11,71.7,221.85l-21.26,7.74L76.34,174a21.94,21.94,0,0,1-3.75-5.95,17.94,17.94,0,0,1-.69-2l-.6-.2L35,243.71l31.89-11.61L78.52,264l33.34-71.5A26.74,26.74,0,0,1,104.08,190.26Z"/><path class="cls-1" d="M200.7,165.91l-.6.2a17.74,17.74,0,0,1-.69,2,21.94,21.94,0,0,1-3.75,5.95l25.91,55.56-21.26-7.74-7.74,21.26-24.64-52.85a26.75,26.75,0,0,1-7.78,2.24L193.48,264l11.61-31.89L237,243.71Z"/><path class="cls-1" d="M230,102a22.78,22.78,0,0,0-4.46-14.19,20.67,20.67,0,0,0,1.09-8.75c-.56-7.13-4.17-14.44-9.85-18.24a19.4,19.4,0,0,0-.55-5.19c-1.8-7.48-8.15-15.47-16.13-17.73a18.12,18.12,0,0,0-.69-2c-3.42-8.24-12.9-14.7-21.6-14.7h-.66c-4-5.88-12.1-9.93-20.08-9.93a20,20,0,0,0-6.89,1.16,24.77,24.77,0,0,0-28.37,0,20,20,0,0,0-6.89-1.16c-8,0-16.12,4.05-20.08,9.93h-.66c-8.7,0-18.18,6.46-21.6,14.7a18,18,0,0,0-.69,2c-8,2.26-14.33,10.24-16.13,17.73a19.38,19.38,0,0,0-.55,5.19c-5.68,3.8-9.29,11.11-9.85,18.24a20.67,20.67,0,0,0,1.09,8.75A22.77,22.77,0,0,0,42,102a22.77,22.77,0,0,0,4.47,14.19,20.67,20.67,0,0,0-1.09,8.75c.56,7.13,4.17,14.44,9.85,18.24a19.4,19.4,0,0,0,.55,5.19c1.8,7.48,8.15,15.47,16.13,17.73a17.94,17.94,0,0,0,.69,2c3.41,8.24,12.9,14.7,21.6,14.7h.66c4,5.88,12.1,9.93,20.08,9.93a20,20,0,0,0,6.89-1.16,24.77,24.77,0,0,0,28.37,0,20,20,0,0,0,6.89,1.16c8,0,16.12-4.05,20.08-9.93h.66c8.7,0,18.18-6.46,21.6-14.7a17.74,17.74,0,0,0,.69-2c8-2.26,14.33-10.24,16.13-17.73a19.41,19.41,0,0,0,.55-5.19c5.68-3.8,9.29-11.11,9.85-18.24a20.69,20.69,0,0,0-1.09-8.75A22.77,22.77,0,0,0,230,102Zm-17.92,12c13.23,2.1,4.49,29-7.45,22.92,11.94,6.08-4.69,29-14.16,19.5,9.47,9.47-13.41,26.1-19.5,14.16,6.08,11.94-20.82,20.68-22.92,7.45,2.1,13.23-26.19,13.23-24.1,0-2.1,13.23-29,4.49-22.92-7.45-6.08,11.94-29-4.69-19.5-14.16-9.47,9.47-26.1-13.41-14.16-19.5-11.94,6.08-20.68-20.82-7.45-22.92-13.23,2.1-13.23-26.19,0-24.1-13.23-2.1-4.49-29,7.45-22.92-11.94-6.08,4.69-29,14.16-19.5-9.47-9.47,13.41-26.1,19.5-14.16C94.95,21.43,121.86,12.69,124,25.92c-2.1-13.23,26.19-13.23,24.1,0,2.1-13.23,29-4.49,22.92,7.45,6.08-11.94,29,4.69,19.5,14.16,9.47-9.47,26.1,13.41,14.16,19.5,11.94-6.08,20.68,20.82,7.45,22.92C225.31,87.86,225.31,116.14,212.08,114Z"/><path class="cls-1" d="M136,42a60,60,0,1,0,60,60A60,60,0,0,0,136,42Zm0,112a52,52,0,1,1,52-52A52.06,52.06,0,0,1,136,154Z"/><path class="cls-1" d="M175.13,88.83l-27.77-3-13.23-24.6L122.65,86.64l-27.49,5,20.67,18.79-3.76,27.68,24.26-13.85,25.16,12.13L155.82,109ZM136,115.2l-13.83,7.9,2.14-15.79L112.54,96.6l15.67-2.84,6.55-14.52,7.54,14L158.15,95l-11,11.51,3.24,15.6Z"/></svg>