<svg id="Layer_1" data-name="Layer 1" xmlns="http://www.w3.org/2000/svg" viewBox="0 0 48 48"><defs><style>.cls-1{fill:#5b9ad8;}.cls-2{fill:#9fd367;}.cls-3{fill:#ffbf8e;}.cls-4{fill:#ffd0b0;}.cls-5{fill:#2c435e;}.cls-6{fill:#edebf2;}.cls-7{fill:#f26674;}.cls-8{fill:#e79165;}.cls-9{fill:#3b506d;}.cls-10{fill:#84b749;}</style></defs><title>teacher, education, school, lecture, student</title><path class="cls-1" d="M2.46,43.58H9.31a2.94,2.94,0,0,1,2.94,2.94v1a0,0,0,0,1,0,0H2.46a0,0,0,0,1,0,0V43.58A0,0,0,0,1,2.46,43.58Z"/><rect class="cls-2" x="0.5" y="0.5" width="47" height="31.33"/><rect class="cls-3" x="0.5" y="28.9" width="47" height="2.94"/><path class="cls-4" d="M33.79,12.25h6.85a0,0,0,0,1,0,0v3.46a3.39,3.39,0,0,1-3.39,3.39h-.07a3.39,3.39,0,0,1-3.39-3.39V12.25A0,0,0,0,1,33.79,12.25Z"/><path class="cls-5" d="M32.81,10.29h5.88a2,2,0,0,1,2,2v0a2,2,0,0,1-2,2h-2a3.92,3.92,0,0,1-3.92-3.92v0a0,0,0,0,1,0,0Z"/><path class="cls-5" d="M39.18,11.27h0a1.47,1.47,0,0,1,1.47,1.47v4.41a0,0,0,0,1,0,0h0a2.94,2.94,0,0,1-2.94-2.94V12.74A1.47,1.47,0,0,1,39.18,11.27Z"/><path class="cls-6" d="M36.73,19.1h2A3.92,3.92,0,0,1,42.6,23V36.73a0,0,0,0,1,0,0H32.81a0,0,0,0,1,0,0V23A3.92,3.92,0,0,1,36.73,19.1Z"/><polygon class="cls-6" points="29.99 19.1 25.64 14.75 23.13 17.25 27.92 22.04 28.9 23.02 33.91 23.02 38.69 23.02 38.69 19.1 29.99 19.1"/><path class="cls-4" d="M21.89,13.19H23A1.77,1.77,0,0,1,24.81,15v0A1.77,1.77,0,0,1,23,16.74H21.89a0,0,0,0,1,0,0V13.19A0,0,0,0,1,21.89,13.19Z" transform="translate(29.28 42.06) rotate(-135)"/><path class="cls-4" d="M2.46,26H8.33a0,0,0,0,1,0,0v2A2.94,2.94,0,0,1,5.4,30.85h0a2.94,2.94,0,0,1-2.94-2.94V26a0,0,0,0,1,0,0Z"/><path class="cls-7" d="M5.4,30.85h0a3.92,3.92,0,0,1,3.92,3.92v8.81a0,0,0,0,1,0,0H1.48a0,0,0,0,1,0,0V34.77A3.92,3.92,0,0,1,5.4,30.85Z"/><path class="cls-4" d="M14.21,26h5.87a0,0,0,0,1,0,0v2a2.94,2.94,0,0,1-2.94,2.94h0a2.94,2.94,0,0,1-2.94-2.94V26a0,0,0,0,1,0,0Z"/><path class="cls-7" d="M17.15,30.85h0a3.92,3.92,0,0,1,3.92,3.92v8.81a0,0,0,0,1,0,0H13.23a0,0,0,0,1,0,0V34.77a3.92,3.92,0,0,1,3.92-3.92Z"/><rect class="cls-3" x="0.5" y="34.77" width="9.79" height="5.88"/><rect class="cls-3" x="0.5" y="45.54" width="9.79" height="1.96"/><path class="cls-1" d="M14.21,43.58h6.85A2.94,2.94,0,0,1,24,46.52v1a0,0,0,0,1,0,0H14.21a0,0,0,0,1,0,0V43.58A0,0,0,0,1,14.21,43.58Z"/><rect class="cls-3" x="12.25" y="45.54" width="9.79" height="1.96"/><rect class="cls-8" x="1.48" y="36.73" width="1.96" height="10.77"/><rect class="cls-8" x="7.35" y="36.73" width="1.96" height="10.77"/><path class="cls-7" d="M17.15,30.85h0a3.92,3.92,0,0,1,3.92,3.92v8.81a0,0,0,0,1,0,0H13.23a0,0,0,0,1,0,0V34.77A3.92,3.92,0,0,1,17.15,30.85Z"/><path class="cls-5" d="M9.31,23v2a1,1,0,0,1-1,1H6.38a1,1,0,0,0-1,1,2.94,2.94,0,0,1-2.94,2.94V26A2.93,2.93,0,0,1,5.4,23Z"/><path class="cls-5" d="M19.1,23h-2A2.94,2.94,0,0,0,14.21,26v9.79H19.1V26.94a1,1,0,0,1,1-1,1,1,0,0,0,1-1A2,2,0,0,0,19.1,23Z"/><rect class="cls-3" x="12.25" y="34.77" width="9.79" height="5.88"/><rect class="cls-8" x="13.23" y="36.73" width="1.96" height="10.77"/><rect class="cls-8" x="19.1" y="36.73" width="1.96" height="10.77"/><rect class="cls-9" x="32.81" y="36.73" width="9.79" height="3.92"/><rect class="cls-9" x="38.69" y="40.65" width="3.92" height="6.85"/><rect class="cls-9" x="32.81" y="40.65" width="3.92" height="6.85"/><rect class="cls-10" x="4.42" y="3.44" width="14.69" height="1.96"/><rect class="cls-10" x="4.42" y="8.33" width="4.9" height="1.96"/><rect class="cls-10" x="11.27" y="8.33" width="7.83" height="1.96"/><rect class="cls-10" x="4.42" y="13.23" width="10.77" height="1.96"/><rect class="cls-10" x="17.15" y="13.23" width="1.96" height="1.96"/><rect class="cls-10" x="4.42" y="18.13" width="7.83" height="1.96"/></svg>